:FULLY-SPECIFIED
:FORCE-ALL-JOINTS-BE-3DOF
:DEGREES
1019
root 1.14502 15.1582 32.4627 4.92117 -3.6161 363.605
lfemur 8.53845 0.657284 5.69086
ltibia -9.85194e-15 0 0
lfoot -30.1465 -11.1324 0
ltoes -34.327 0 0
rfemur -31.7406 -15.8696 -6.04821
rtibia 50.3188 0 0
rfoot -22.2922 5.01372 0
rtoes -42.0864 0 0
lowerback -1.49785 -0.162887 0.273231
upperback -0.557085 -0.204619 -5.97063
thorax 0.243914 -0.110055 -6.34936
lowerneck -7.10484 0.929824 6.27837
upperneck 1.59543 0.55713 3.53325
head 1.71572 0.412029 0.0677444
lclavicle 1.85694e-15 -1.24895e-14 0
lhumerus -58.6322 -46.3472 115.242
lradius 55.6263 0 0
lwrist 25.2335 0 0
lhand 37.2958 24.9388 0
lfingers 7.12502 0 0
lthumb 60.1182 38.5944 0
rclavicle 1.85694e-15 -1.24895e-14 0
rhumerus 2.879 -24.0426 0.165986
rradius 27.6505 0 0
rwrist -10.2934 0 0
rhand -30.8047 -43.0171 0
rfingers 7.12502 0 0
rthumb -4.0945 -792.957 0
1020
root 1.14589 15.1584 32.4618 4.90773 -3.58503 363.59
lfemur 8.5337 0.624601 5.70627
ltibia -1.11707e-14 0 0
lfoot -30.1477 -11.1153 0
ltoes -34.3402 0 0
rfemur -31.7047 -15.8806 -6.04189
rtibia 50.3037 0 0
rfoot -22.283 5.01418 0
rtoes -42.0919 0 0
lowerback -1.49603 -0.155342 0.260336
upperback -0.552372 -0.194085 -5.97244
thorax 0.249038 -0.104544 -6.34368
lowerneck -7.11776 0.923744 6.29024
upperneck 1.61095 0.546025 3.53935
head 1.72298 0.407398 0.067366
lclavicle 1.94664e-15 -1.22955e-14 0
lhumerus -58.6411 -46.3836 115.256
lradius 55.6435 0 0
lwrist 25.2354 0 0
lhand 37.2958 24.9522 0
lfingers 7.12502 0 0
lthumb 60.1181 38.6078 0
rclavicle 1.94664e-15 -1.22955e-14 0
rhumerus 2.8535 -24.0136 0.175975
rradius 27.6398 0 0
rwrist -10.2637 0 0
rhand -30.7854 -42.9698 0
rfingers 7.12502 0 0
rthumb -4.07586 -792.91 0
1021
root 1.14676 15.1585 32.4608 4.89429 -3.55395 363.574
lfemur 8.52896 0.591918 5.72169
ltibia -1.24895e-14 0 0
lfoot -30.1489 -11.0982 0
ltoes -34.3535 0 0
rfemur -31.6688 -15.8916 -6.03557
rtibia 50.2885 0 0
rfoot -22.2738 5.01464 0
rtoes -42.0975 0 0
lowerback -1.49422 -0.147798 0.247441
upperback -0.547659 -0.18355 -5.97424
thorax 0.254163 -0.0990338 -6.33801
lowerneck -7.13068 0.917664 6.30212
upperneck 1.62648 0.53492 3.54546
head 1.73025 0.402767 0.0669875
lclavicle 2.03633e-15 -1.21016e-14 0
lhumerus -58.65 -46.4199 115.271
lradius 55.6606 0 0
lwrist 25.2373 0 0
lhand 37.2957 24.9656 0
lfingers 7.12502 0 0
lthumb 60.1181 38.6213 0
rclavicle 2.03633e-15 -1.21016e-14 0
rhumerus 2.82799 -23.9846 0.185963
rradius 27.6292 0 0
rwrist -10.234 0 0
rhand -30.7661 -42.9224 0
rfingers 7.12502 0 0
rthumb -4.05723 -792.863 0
1022
root 1.14763 15.1587 32.4599 4.88086 -3.52287 363.559
lfemur 8.52422 0.559234 5.73711
ltibia -1.38082e-14 0 0
lfoot -30.1501 -11.0811 0
ltoes -34.3668 0 0
rfemur -31.633 -15.9026 -6.02925
rtibia 50.2733 0 0
rfoot -22.2646 5.01511 0
rtoes -42.103 0 0
lowerback -1.49241 -0.140253 0.234547
upperback -0.542946 -0.173015 -5.97605
thorax 0.259287 -0.0935232 -6.33234
lowerneck -7.1436 0.911584 6.31399
upperneck 1.642 0.523815 3.55156
head 1.73751 0.398135 0.0666091
lclavicle 2.12603e-15 -1.19076e-14 0
lhumerus -58.6589 -46.4563 115.285
lradius 55.6778 0 0
lwrist 25.2391 0 0
lhand 37.2957 24.979 0
lfingers 7.12502 0 0
lthumb 60.1181 38.6347 0
rclavicle 2.12603e-15 -1.19076e-14 0
rhumerus 2.80249 -23.9556 0.195952
rradius 27.6185 0 0
rwrist -10.2044 0 0
rhand -30.7468 -42.875 0
rfingers 7.12502 0 0
rthumb -4.03859 -792.816 0
1023
root 1.1485 15.1588 32.4589 4.86742 -3.4918 363.544
lfemur 8.51948 0.526551 5.75253
ltibia -1.5127e-14 0 0
lfoot -30.1513 -11.0639 0
ltoes -34.38 0 0
rfemur -31.5971 -15.9136 -6.02294
rtibia 50.2581 0 0
rfoot -22.2554 5.01557 0
rtoes -42.1086 0 0
lowerback -1.49059 -0.132709 0.221652
upperback -0.538233 -0.16248 -5.97786
thorax 0.264412 -0.0880125 -6.32666
lowerneck -7.15651 0.905504 6.32587
upperneck 1.65752 0.51271 3.55767
head 1.74477 0.393504 0.0662306
lclavicle 2.21572e-15 -1.17137e-14 0
lhumerus -58.6678 -46.4927 115.299
lradius 55.6949 0 0
lwrist 25.241 0 0
lhand 37.2957 24.9924 0
lfingers 7.12502 0 0
lthumb 60.1181 38.6482 0
rclavicle 2.21572e-15 -1.17137e-14 0
rhumerus 2.77698 -23.9266 0.20594
rradius 27.6078 0 0
rwrist -10.1747 0 0
rhand -30.7275 -42.8277 0
rfingers 7.12502 0 0
rthumb -4.01995 -792.769 0
1024
root 1.14937 15.159 32.458 4.85398 -3.46072 363.529
lfemur 8.51474 0.493868 5.76794
ltibia -1.64458e-14 0 0
lfoot -30.1526 -11.0468 0
ltoes -34.3933 0 0
rfemur -31.5612 -15.9246 -6.01662
rtibia 50.2429 0 0
rfoot -22.2462 5.01603 0
rtoes -42.1142 0 0
lowerback -1.48878 -0.125164 0.208757
upperback -0.533521 -0.151945 -5.97967
thorax 0.269537 -0.0825019 -6.32099
lowerneck -7.16943 0.899423 6.33774
upperneck 1.67304 0.501604 3.56378
head 1.75203 0.388873 0.0658522
lclavicle 2.30542e-15 -1.15198e-14 0
lhumerus -58.6766 -46.5291 115.313
lradius 55.7121 0 0
lwrist 25.2429 0 0
lhand 37.2957 25.0059 0
lfingers 7.12502 0 0
lthumb 60.118 38.6616 0
rclavicle 2.30542e-15 -1.15198e-14 0
rhumerus 2.75148 -23.8977 0.215929
rradius 27.5971 0 0
rwrist -10.145 0 0
rhand -30.7082 -42.7803 0
rfingers 7.12502 0 0
rthumb -4.00131 -792.722 0
1025
root 1.15024 15.1591 32.457 4.84054 -3.42965 363.513
lfemur 8.51 0.461185 5.78336
ltibia -1.77645e-14 0 0
lfoot -30.1538 -11.0297 0
ltoes -34.4065 0 0
rfemur -31.5254 -15.9356 -6.0103
rtibia 50.2277 0 0
rfoot -22.237 5.0165 0
rtoes -42.1197 0 0
lowerback -1.48696 -0.11762 0.195863
upperback -0.528808 -0.14141 -5.98147
thorax 0.274661 -0.0769912 -6.31531
lowerneck -7.18235 0.893343 6.34962
upperneck 1.68857 0.490499 3.56988
head 1.7593 0.384241 0.0654737
lclavicle 2.39511e-15 -1.13258e-14 0
lhumerus -58.6855 -46.5654 115.328
lradius 55.7292 0 0
lwrist 25.2447 0 0
lhand 37.2956 25.0193 0
lfingers 7.12502 0 0
lthumb 60.118 38.6751 0
rclavicle 2.39511e-15 -1.13258e-14 0
rhumerus 2.72597 -23.8687 0.225917
rradius 27.5864 0 0
rwrist -10.1153 0 0
rhand -30.6889 -42.733 0
rfingers 7.12502 0 0
rthumb -3.98268 -792.675 0
1026
root 1.15111 15.1593 32.4561 4.8271 -3.39857 363.498
lfemur 8.50526 0.428502 5.79878
ltibia -1.90833e-14 0 0
lfoot -30.155 -11.0126 0
ltoes -34.4198 0 0
rfemur -31.4895 -15.9466 -6.00398
rtibia 50.2125 0 0
rfoot -22.2278 5.01696 0
rtoes -42.1253 0 0
lowerback -1.48515 -0.110075 0.182968
upperback -0.524095 -0.130875 -5.98328
thorax 0.279786 -0.0714806 -6.30964
lowerneck -7.19527 0.887263 6.36149
upperneck 1.70409 0.479394 3.57599
head 1.76656 0.37961 0.0650953
lclavicle 2.48481e-15 -1.11319e-14 0
lhumerus -58.6944 -46.6018 115.342
lradius 55.7464 0 0
lwrist 25.2466 0 0
lhand 37.2956 25.0327 0
lfingers 7.12502 0 0
lthumb 60.118 38.6885 0
rclavicle 2.48481e-15 -1.11319e-14 0
rhumerus 2.70047 -23.8397 0.235906
rradius 27.5757 0 0
rwrist -10.0856 0 0
rhand -30.6696 -42.6856 0
rfingers 7.12502 0 0
rthumb -3.96404 -792.628 0
1027
root 1.1531 15.1595 32.4598 4.83014 -3.40015 363.493
lfemur 8.50117 0.432345 5.79157
ltibia 0.0328127 0 0
lfoot -30.1793 -11.009 0
ltoes -34.4174 0 0
rfemur -31.471 -15.9347 -6.01111
rtibia 50.2011 0 0
rfoot -22.2181 5.02753 0
rtoes -42.0921 0 0
lowerback -1.49706 -0.108761 0.169938
upperback -0.523396 -0.128442 -5.98156
thorax 0.287478 -0.0701409 -6.30032
lowerneck -7.19137 0.882846 6.36264
upperneck 1.69336 0.474174 3.57948
head 1.76227 0.376669 0.0657901
lclavicle 2.75874e-15 -1.1481e-14 0
lhumerus -58.6878 -46.6037 115.343
lradius 55.7459 0 0
lwrist 25.2544 0 0
lhand 37.3014 25.0402 0
lfingers 7.12502 0 0
lthumb 60.1229 38.6907 0
rclavicle 2.75874e-15 -1.1481e-14 0
rhumerus 2.68397 -23.826 0.247056
rradius 27.5746 0 0
rwrist -10.0682 0 0
rhand -30.6698 -42.6674 0
rfingers 7.12502 0 0
rthumb -3.96421 -792.61 0
1028
root 1.15509 15.1596 32.4636 4.83318 -3.40173 363.487
lfemur 8.49708 0.436187 5.78436
ltibia 0.0656254 0 0
lfoot -30.2037 -11.0054 0
ltoes -34.4149 0 0
rfemur -31.4525 -15.9229 -6.01824
rtibia 50.1897 0 0
rfoot -22.2085 5.0381 0
rtoes -42.059 0 0
lowerback -1.50897 -0.107447 0.156907
upperback -0.522697 -0.126008 -5.97984
thorax 0.29517 -0.0688012 -6.291
lowerneck -7.18747 0.878429 6.36378
upperneck 1.68263 0.468955 3.58296
head 1.75798 0.373727 0.0664849
lclavicle 3.03268e-15 -1.18301e-14 0
lhumerus -58.6813 -46.6056 115.343
lradius 55.7454 0 0
lwrist 25.2621 0 0
lhand 37.3071 25.0476 0
lfingers 7.12502 0 0
lthumb 60.1278 38.6929 0
rclavicle 3.03268e-15 -1.18301e-14 0
rhumerus 2.66747 -23.8124 0.258206
rradius 27.5734 0 0
rwrist -10.0507 0 0
rhand -30.67 -42.6491 0
rfingers 7.12502 0 0
rthumb -3.96438 -792.592 0
1029
root 1.15708 15.1598 32.4673 4.83623 -3.40331 363.482
lfemur 8.49298 0.44003 5.77715
ltibia 0.098438 0 0
lfoot -30.228 -11.0017 0
ltoes -34.4125 0 0
rfemur -31.434 -15.911 -6.02537
rtibia 50.1783 0 0
rfoot -22.1988 5.04868 0
rtoes -42.0258 0 0
lowerback -1.52087 -0.106133 0.143877
upperback -0.521998 -0.123575 -5.97813
thorax 0.302862 -0.0674615 -6.28168
lowerneck -7.18357 0.874012 6.36493
upperneck 1.6719 0.463735 3.58645
head 1.75369 0.370786 0.0671797
lclavicle 3.30661e-15 -1.21792e-14 0
lhumerus -58.6747 -46.6075 115.344
lradius 55.7449 0 0
lwrist 25.2699 0 0
lhand 37.3129 25.0551 0
lfingers 7.12502 0 0
lthumb 60.1328 38.6951 0
rclavicle 3.30661e-15 -1.21792e-14 0
rhumerus 2.65096 -23.7987 0.269355
rradius 27.5723 0 0
rwrist -10.0333 0 0
rhand -30.6701 -42.6309 0
rfingers 7.12502 0 0
rthumb -3.96455 -792.573 0
1030
root 1.15907 15.1599 32.4711 4.83927 -3.40489 363.477
lfemur 8.48889 0.443873 5.76995
ltibia 0.131251 0 0
lfoot -30.2523 -10.9981 0
ltoes -34.4101 0 0
rfemur -31.4155 -15.8992 -6.0325
rtibia 50.1669 0 0
rfoot -22.1892 5.05925 0
rtoes -41.9927 0 0
lowerback -1.53278 -0.10482 0.130847
upperback -0.521299 -0.121141 -5.97641
thorax 0.310554 -0.0661217 -6.27236
lowerneck -7.17967 0.869594 6.36608
upperneck 1.66117 0.458516 3.58993
head 1.7494 0.367844 0.0678745
lclavicle 3.58055e-15 -1.25282e-14 0
lhumerus -58.6682 -46.6095 115.344
lradius 55.7445 0 0
lwrist 25.2777 0 0
lhand 37.3186 25.0625 0
lfingers 7.12502 0 0
lthumb 60.1377 38.6973 0
rclavicle 3.58055e-15 -1.25282e-14 0
rhumerus 2.63446 -23.7851 0.280505
rradius 27.5712 0 0
rwrist -10.0159 0 0
rhand -30.6703 -42.6126 0
rfingers 7.12502 0 0
rthumb -3.96472 -792.555 0
